<svg width="442" height="120" viewBox="0 0 442 120" fill="none" xmlns="http://www.w3.org/2000/svg">
<path d="M67.0516 20.9806C67.0516 9.39331 76.1423 0 87.3564 0C98.5704 0 107.661 9.39332 107.661 20.9806V81.7807C107.661 93.368 98.5704 102.761 87.3564 102.761C81.9247 102.761 76.9911 100.558 73.3474 96.9681C68.3841 92.0786 62.7533 86.63 55.8957 86.63C49.1049 86.63 43.5097 91.9049 38.7875 96.9476C34.7757 101.232 29.1527 103.895 22.9278 103.895C10.7407 103.895 0.861206 93.6867 0.861206 81.0941C0.861206 68.5015 10.7407 58.2931 22.9278 58.2931C31.0003 58.2931 38.0604 62.7721 41.9074 69.4562C44.9926 74.8165 49.7212 80.0272 55.757 80.0272C61.9948 80.0272 67.0516 74.8022 67.0516 68.3568V20.9806Z" fill="#FFCB25"/>
<path d="M56.0811 120C64.4082 120 71.1588 114.288 71.1588 107.242C71.1588 100.195 62.9881 92.8796 56.0811 92.8796C49.174 92.8796 41.0033 100.195 41.0033 107.242C41.0033 114.288 47.7539 120 56.0811 120Z" fill="#FFCB25"/>
<path d="M154.999 78.903C152.633 78.903 150.492 78.565 148.577 77.8889C146.661 77.2129 145.027 76.4242 143.675 75.5227C142.38 74.6213 141.365 73.8326 140.633 73.1565C139.957 72.4805 139.619 72.1425 139.619 72.1425C138.887 71.3537 138.211 70.565 137.591 69.7763C136.971 68.9312 136.661 67.9735 136.661 66.903C136.661 66.0016 136.887 65.1002 137.337 64.1988C137.844 63.2411 138.605 62.227 139.619 61.1566C140.577 60.1425 141.506 59.3819 142.408 58.8749C143.309 58.3678 144.211 58.1143 145.112 58.1143C146.239 58.1143 147.253 58.4523 148.154 59.1284C149.112 59.8044 149.957 60.5368 150.689 61.3256C150.915 61.4946 151.225 61.7481 151.619 62.0861C152.013 62.3678 152.52 62.6495 153.14 62.9312C153.76 63.1566 154.52 63.2692 155.422 63.2692C156.323 63.2692 157.14 63.1284 157.873 62.8467C158.661 62.5087 159.309 62.058 159.816 61.4946C160.38 60.8749 160.802 60.1706 161.084 59.3819C161.365 58.5368 161.506 57.6073 161.506 56.5932V27.2693C161.506 25.9735 161.619 24.6777 161.844 23.3819C162.126 22.0862 162.802 21.0158 163.873 20.1707C164.999 19.3256 166.858 18.9031 169.45 18.9031C171.929 18.9031 173.675 19.2974 174.689 20.0862C175.76 20.8749 176.408 21.889 176.633 23.1284C176.915 24.3115 177.056 25.5228 177.056 26.7622V57.1847C177.056 60.1706 176.492 62.9875 175.365 65.6354C174.239 68.227 172.661 70.5368 170.633 72.565C168.605 74.5368 166.239 76.0861 163.534 77.2129C160.887 78.3396 158.042 78.903 154.999 78.903Z" fill="white"/>
<path d="M194.584 78.903C192.009 78.903 190.177 78.5311 189.09 77.7872C188.003 76.986 187.345 75.9846 187.116 74.7829C186.887 73.5239 186.773 72.265 186.773 71.006V26.7142C186.773 25.4553 186.887 24.225 187.116 23.0232C187.345 21.8215 188.003 20.8487 189.09 20.1048C190.177 19.3036 192.037 18.9031 194.67 18.9031H211.751C213.926 18.9031 216.272 19.3609 218.79 20.2765C221.308 21.1348 223.682 22.4796 225.914 24.3108C228.203 26.142 230.063 28.431 231.494 31.1777C232.924 33.9245 233.64 37.1863 233.64 40.9631C233.64 44.6827 232.924 47.9159 231.494 50.6627C230.063 53.4095 228.203 55.6985 225.914 57.5297C223.682 59.3036 221.308 60.6484 218.79 61.564C216.272 62.4224 213.897 62.8515 211.665 62.8515H202.481V71.0919C202.481 72.3508 202.366 73.5811 202.137 74.7829C201.909 75.9846 201.25 76.986 200.163 77.7872C199.076 78.5311 197.216 78.903 194.584 78.903ZM202.481 47.1434H211.751C212.495 47.1434 213.353 46.9717 214.326 46.6284C215.299 46.2278 216.157 45.5697 216.901 44.6541C217.645 43.7385 218.017 42.4796 218.017 40.8773C218.017 39.6756 217.731 38.6169 217.159 37.7013C216.587 36.7285 215.814 35.9846 214.841 35.4696C213.926 34.8973 212.867 34.6112 211.665 34.6112H202.481V47.1434Z" fill="white"/>
<path d="M375.921 78.9031C373.349 78.9031 371.521 78.5316 370.435 77.7888C369.349 76.9888 368.692 75.9888 368.464 74.7888C368.235 73.5316 368.121 72.2745 368.121 71.0174V26.7031C368.121 25.4459 368.235 24.2174 368.464 23.0174C368.692 21.8174 369.349 20.8459 370.435 20.1031C371.521 19.3031 373.378 18.9031 376.006 18.9031C378.635 18.9031 380.464 19.3031 381.492 20.1031C382.578 20.8459 383.235 21.8174 383.464 23.0174C383.692 24.2174 383.806 25.4745 383.806 26.7888V65.5316H404.721C405.806 65.5316 406.835 65.6174 407.806 65.7888C408.835 65.9602 409.664 66.5316 410.292 67.5031C410.978 68.4174 411.321 69.9888 411.321 72.2174C411.321 74.3888 410.978 75.9602 410.292 76.9316C409.606 77.8459 408.749 78.3888 407.721 78.5602C406.749 78.7888 405.721 78.9031 404.635 78.9031H375.921Z" fill="white"/>
<path d="M268.721 78.9031C264.648 78.9031 260.826 78.152 257.255 76.6499C253.74 75.0922 250.643 72.9504 247.965 70.2243C245.286 67.4983 243.166 64.3551 241.604 60.7946C240.097 57.1785 239.344 53.3398 239.344 49.2786C239.344 45.0505 240.07 41.1006 241.52 37.4288C243.027 33.757 245.091 30.5303 247.714 27.7487C250.336 24.9671 253.377 22.7974 256.836 21.2397C260.351 19.6819 264.09 18.9031 268.051 18.9031C272.124 18.9031 275.919 19.6819 279.434 21.2397C283.005 22.7417 286.129 24.8558 288.807 27.5818C291.486 30.3078 293.578 33.5067 295.084 37.1785C296.591 40.7946 297.344 44.7167 297.344 48.9448C297.344 53.0616 296.591 56.9281 295.084 60.5442C293.634 64.1604 291.569 67.3593 288.891 70.1409C286.269 72.8669 283.228 75.0088 279.768 76.5665C276.365 78.1242 272.682 78.9031 268.721 78.9031ZM268.302 63.6319C270.199 63.6319 271.985 63.2702 273.659 62.547C275.333 61.7682 276.783 60.739 278.011 59.4594C279.294 58.1242 280.271 56.5665 280.94 54.7862C281.666 52.9504 282.028 51.0032 282.028 48.9448C282.028 46.8864 281.666 44.9671 280.94 43.1868C280.215 41.4066 279.21 39.8488 277.927 38.5136C276.7 37.1228 275.249 36.0658 273.575 35.3426C271.957 34.5637 270.227 34.1743 268.386 34.1743C266.489 34.1743 264.704 34.5637 263.03 35.3426C261.412 36.0658 259.961 37.1228 258.678 38.5136C257.45 39.8488 256.474 41.4066 255.748 43.1868C255.023 44.9671 254.66 46.8864 254.66 48.9448C254.66 50.9476 255.023 52.8391 255.748 54.6193C256.474 56.3996 257.45 57.9851 258.678 59.3759C259.961 60.7111 261.412 61.7682 263.03 62.547C264.704 63.2702 266.461 63.6319 268.302 63.6319Z" fill="white"/>
<path d="M332.822 78.9031C328.749 78.9031 324.927 78.152 321.356 76.6499C317.84 75.0922 314.744 72.9504 312.066 70.2243C309.387 67.4983 307.267 64.3551 305.705 60.7946C304.198 57.1785 303.445 53.3398 303.445 49.2786C303.445 45.0505 304.17 41.1006 305.621 37.4288C307.128 33.757 309.192 30.5303 311.815 27.7487C314.437 24.9671 317.478 22.7974 320.937 21.2397C324.452 19.6819 328.191 18.9031 332.152 18.9031C336.225 18.9031 340.019 19.6819 343.535 21.2397C347.106 22.7417 350.23 24.8558 352.908 27.5818C355.587 30.3078 357.679 33.5067 359.185 37.1785C360.692 40.7946 361.445 44.7167 361.445 48.9448C361.445 53.0616 360.692 56.9281 359.185 60.5442C357.735 64.1604 355.67 67.3593 352.992 70.1409C350.37 72.8669 347.329 75.0088 343.869 76.5665C340.466 78.1242 336.783 78.9031 332.822 78.9031ZM332.403 63.6319C334.3 63.6319 336.086 63.2702 337.76 62.547C339.434 61.7682 340.884 60.739 342.112 59.4594C343.395 58.1242 344.372 56.5665 345.041 54.7862C345.766 52.9504 346.129 51.0032 346.129 48.9448C346.129 46.8864 345.766 44.9671 345.041 43.1868C344.316 41.4066 343.311 39.8488 342.028 38.5136C340.801 37.1228 339.35 36.0658 337.676 35.3426C336.058 34.5637 334.328 34.1743 332.487 34.1743C330.59 34.1743 328.804 34.5637 327.131 35.3426C325.512 36.0658 324.062 37.1228 322.778 38.5136C321.551 39.8488 320.574 41.4066 319.849 43.1868C319.124 44.9671 318.761 46.8864 318.761 48.9448C318.761 50.9476 319.124 52.8391 319.849 54.6193C320.574 56.3996 321.551 57.9851 322.778 59.3759C324.062 60.7111 325.512 61.7682 327.131 62.547C328.804 63.2702 330.562 63.6319 332.403 63.6319Z" fill="white"/>
<path d="M432.368 114.362C431.036 114.362 429.803 114.11 428.669 113.606C427.535 113.102 426.536 112.4 425.672 111.5C424.826 110.6 424.16 109.547 423.674 108.341C423.206 107.135 422.972 105.83 422.972 104.426C422.972 103.094 423.215 101.861 423.701 100.727C424.187 99.5751 424.862 98.5761 425.726 97.7301C426.59 96.8661 427.607 96.2001 428.777 95.7321C429.947 95.2461 431.216 94.9941 432.584 94.9761C433.142 94.9761 433.736 95.0301 434.366 95.1381C435.014 95.2461 435.644 95.4081 436.256 95.6241C436.868 95.8401 437.399 96.1011 437.849 96.4071C438.209 96.6411 438.524 96.8931 438.794 97.1631C439.082 97.4151 439.226 97.7211 439.226 98.0811C439.244 98.2611 439.208 98.4681 439.118 98.7021C439.028 98.9181 438.902 99.1431 438.74 99.3771C438.452 99.7911 438.164 100.088 437.876 100.268C437.606 100.448 437.336 100.538 437.066 100.538C436.922 100.538 436.751 100.493 436.553 100.403C436.355 100.313 436.085 100.16 435.743 99.9441C435.581 99.8361 435.329 99.7191 434.987 99.5931C434.645 99.4671 434.249 99.3591 433.799 99.2691C433.367 99.1611 432.917 99.1071 432.449 99.1071C431.423 99.1071 430.505 99.3411 429.695 99.8091C428.885 100.259 428.246 100.889 427.778 101.699C427.328 102.509 427.094 103.445 427.076 104.507C427.094 105.587 427.337 106.559 427.805 107.423C428.273 108.269 428.912 108.944 429.722 109.448C430.55 109.952 431.468 110.204 432.476 110.204C432.836 110.204 433.196 110.186 433.556 110.15C433.934 110.114 434.294 110.06 434.636 109.988C434.996 109.898 435.32 109.79 435.608 109.664V106.37H432.719C432.413 106.37 432.134 106.343 431.882 106.289C431.648 106.235 431.45 106.082 431.288 105.83C431.144 105.578 431.072 105.164 431.072 104.588C431.072 104.012 431.153 103.607 431.315 103.373C431.477 103.121 431.684 102.968 431.936 102.914C432.206 102.86 432.485 102.833 432.773 102.833H437.876C438.47 102.851 438.893 102.959 439.145 103.157C439.397 103.355 439.559 103.607 439.631 103.913C439.703 104.201 439.739 104.516 439.739 104.858V110.744C439.739 111.176 439.541 111.626 439.145 112.094C438.749 112.544 438.209 112.94 437.525 113.282C437.093 113.516 436.598 113.714 436.04 113.876C435.5 114.02 434.924 114.137 434.312 114.227C433.7 114.317 433.052 114.362 432.368 114.362Z" fill="#D6DBDF"/>
<path d="M404.757 114.146C404.127 114.146 403.668 114.047 403.38 113.849C403.092 113.651 402.912 113.399 402.84 113.093C402.768 112.769 402.732 112.427 402.732 112.067V97.2441C402.732 96.9021 402.768 96.5871 402.84 96.2991C402.912 96.0111 403.092 95.7771 403.38 95.5971C403.686 95.3991 404.172 95.3001 404.838 95.3001C405.486 95.3001 405.936 95.3811 406.188 95.5431C406.44 95.6871 406.665 95.8941 406.863 96.1641L414.747 106.991V97.2441C414.747 96.9021 414.783 96.5871 414.855 96.2991C414.945 96.0111 415.134 95.7771 415.422 95.5971C415.71 95.3991 416.178 95.3001 416.826 95.3001C417.492 95.3001 417.96 95.3991 418.23 95.5971C418.518 95.7951 418.689 96.0561 418.743 96.3801C418.815 96.6861 418.851 97.0101 418.851 97.3521V112.094C418.851 112.436 418.815 112.769 418.743 113.093C418.671 113.399 418.491 113.651 418.203 113.849C417.915 114.047 417.438 114.146 416.772 114.146C416.268 114.146 415.872 114.101 415.584 114.011C415.314 113.921 415.08 113.75 414.882 113.498L406.836 102.59V112.094C406.836 112.436 406.8 112.769 406.728 113.093C406.656 113.399 406.476 113.651 406.188 113.849C405.9 114.047 405.423 114.146 404.757 114.146Z" fill="#D6DBDF"/>
<path d="M396.727 114.146C396.079 114.146 395.611 114.056 395.323 113.876C395.035 113.678 394.855 113.417 394.783 113.093C394.729 112.769 394.702 112.436 394.702 112.094V97.3251C394.702 96.9651 394.729 96.6321 394.783 96.3261C394.855 96.0201 395.035 95.7681 395.323 95.5701C395.611 95.3721 396.088 95.2731 396.754 95.2731C397.438 95.2731 397.915 95.3721 398.185 95.5701C398.473 95.7681 398.644 96.0201 398.698 96.3261C398.77 96.6321 398.806 96.9741 398.806 97.3521V112.121C398.806 112.463 398.77 112.796 398.698 113.12C398.626 113.426 398.446 113.678 398.158 113.876C397.888 114.056 397.411 114.146 396.727 114.146Z" fill="#D6DBDF"/>
<path d="M379.184 114.146C378.536 114.146 378.068 114.056 377.78 113.876C377.492 113.678 377.312 113.417 377.24 113.093C377.186 112.769 377.159 112.436 377.159 112.094V97.2981C377.159 96.9561 377.186 96.6321 377.24 96.3261C377.312 96.0021 377.492 95.7501 377.78 95.5701C378.068 95.3721 378.545 95.2731 379.211 95.2731C379.895 95.2731 380.372 95.3721 380.642 95.5701C380.93 95.7681 381.101 96.0201 381.155 96.3261C381.227 96.6321 381.263 96.9651 381.263 97.3251V101.996L387.041 95.9481C387.401 95.5881 387.725 95.3361 388.013 95.1921C388.319 95.0481 388.625 95.0211 388.931 95.1111C389.255 95.2011 389.597 95.4261 389.957 95.7861C390.569 96.3441 390.875 96.8391 390.875 97.2711C390.893 97.6851 390.641 98.1531 390.119 98.6751L383.909 104.723L390.173 110.717C390.731 111.275 390.992 111.779 390.956 112.229C390.938 112.661 390.623 113.129 390.011 113.633C389.579 113.993 389.201 114.218 388.877 114.308C388.571 114.416 388.283 114.389 388.013 114.227C387.743 114.083 387.437 113.822 387.095 113.444L381.263 107.369V112.121C381.263 112.463 381.227 112.796 381.155 113.12C381.101 113.426 380.93 113.678 380.642 113.876C380.354 114.056 379.868 114.146 379.184 114.146Z" fill="#D6DBDF"/>
<path d="M373.488 111.284C373.704 111.734 373.821 112.121 373.839 112.445C373.857 112.751 373.758 113.03 373.542 113.282C373.344 113.516 373.011 113.75 372.543 113.984C371.823 114.326 371.265 114.425 370.869 114.281C370.473 114.155 370.104 113.732 369.762 113.012L364.47 101.942L359.205 113.012C358.845 113.714 358.467 114.128 358.071 114.254C357.693 114.398 357.144 114.299 356.424 113.957C355.956 113.741 355.614 113.516 355.398 113.282C355.2 113.03 355.11 112.742 355.128 112.418C355.146 112.076 355.272 111.68 355.506 111.23L362.607 96.4611C362.787 96.1011 363.048 95.8131 363.39 95.5971C363.75 95.3811 364.119 95.2731 364.497 95.2731C364.767 95.2731 365.019 95.3271 365.253 95.4351C365.487 95.5251 365.694 95.6601 365.874 95.8401C366.072 96.0201 366.234 96.2361 366.36 96.4881L373.488 111.284ZM359.934 109.745L361.608 106.262H367.359L369.033 109.745H359.934Z" fill="#D6DBDF"/>
<path d="M355.49 95.2461C355.796 95.2461 356.075 95.2731 356.327 95.3271C356.579 95.3811 356.786 95.5341 356.948 95.7861C357.128 96.0201 357.218 96.4341 357.218 97.0281C357.218 97.5861 357.128 97.9911 356.948 98.2431C356.786 98.4951 356.57 98.6481 356.3 98.7021C356.03 98.7561 355.742 98.7831 355.436 98.7831H351.089V112.148C351.089 112.49 351.053 112.814 350.981 113.12C350.927 113.426 350.756 113.678 350.468 113.876C350.198 114.056 349.73 114.146 349.064 114.146C348.416 114.146 347.948 114.056 347.66 113.876C347.372 113.678 347.201 113.426 347.147 113.12C347.093 112.796 347.066 112.463 347.066 112.121V98.7831H342.665C342.377 98.7831 342.098 98.7561 341.828 98.7021C341.558 98.6301 341.342 98.4771 341.18 98.2431C341.018 97.9911 340.937 97.5771 340.937 97.0011C340.937 96.4251 341.018 96.0201 341.18 95.7861C341.342 95.5341 341.558 95.3811 341.828 95.3271C342.098 95.2731 342.377 95.2461 342.665 95.2461H355.49Z" fill="#D6DBDF"/>
<path d="M332.483 114.416C331.529 114.416 330.692 114.299 329.972 114.065C329.27 113.831 328.667 113.552 328.163 113.228C327.677 112.886 327.29 112.553 327.002 112.229C326.714 111.905 326.516 111.662 326.408 111.5C326.102 111.104 325.913 110.762 325.841 110.474C325.769 110.168 325.805 109.862 325.949 109.556C326.111 109.25 326.381 108.917 326.759 108.557C327.137 108.233 327.488 108.062 327.812 108.044C328.154 108.008 328.487 108.089 328.811 108.287C329.135 108.485 329.45 108.764 329.756 109.124C330.188 109.646 330.611 110.015 331.025 110.231C331.457 110.429 331.907 110.528 332.375 110.528C332.969 110.528 333.473 110.456 333.887 110.312C334.301 110.168 334.616 109.943 334.832 109.637C335.048 109.313 335.156 108.908 335.156 108.422C335.156 108.026 335.003 107.711 334.697 107.477C334.409 107.225 334.013 107.009 333.509 106.829C333.023 106.649 332.474 106.478 331.862 106.316C331.268 106.136 330.674 105.929 330.08 105.695C329.666 105.551 329.27 105.371 328.892 105.155C328.514 104.939 328.154 104.696 327.812 104.426C327.47 104.156 327.173 103.832 326.921 103.454C326.687 103.076 326.498 102.644 326.354 102.158C326.228 101.672 326.165 101.114 326.165 100.484C326.165 99.4221 326.426 98.4771 326.948 97.6491C327.47 96.8211 328.19 96.1731 329.108 95.7051C330.044 95.2191 331.115 94.9761 332.321 94.9761C333.131 94.9761 333.833 95.0481 334.427 95.1921C335.039 95.3361 335.552 95.5071 335.966 95.7051C336.38 95.9031 336.704 96.1011 336.938 96.2991C337.19 96.4791 337.361 96.6231 337.451 96.7311C337.955 97.1991 338.234 97.6041 338.288 97.9461C338.342 98.2701 338.153 98.7291 337.721 99.3231C337.271 99.9531 336.821 100.304 336.371 100.376C335.939 100.448 335.444 100.295 334.886 99.9171C334.67 99.7191 334.454 99.5391 334.238 99.3771C334.022 99.2151 333.761 99.0891 333.455 98.9991C333.167 98.8911 332.78 98.8371 332.294 98.8371C332.006 98.8371 331.736 98.8821 331.484 98.9721C331.232 99.0441 331.016 99.1521 330.836 99.2961C330.656 99.4401 330.512 99.6201 330.404 99.8361C330.296 100.034 330.242 100.259 330.242 100.511C330.242 100.925 330.377 101.258 330.647 101.51C330.935 101.762 331.304 101.969 331.754 102.131C332.222 102.275 332.735 102.419 333.293 102.563C333.869 102.689 334.454 102.842 335.048 103.022C335.588 103.202 336.11 103.427 336.614 103.697C337.118 103.949 337.568 104.273 337.964 104.669C338.36 105.065 338.675 105.56 338.909 106.154C339.161 106.748 339.287 107.477 339.287 108.341C339.287 109.421 339.08 110.348 338.666 111.122C338.252 111.896 337.703 112.526 337.019 113.012C336.335 113.498 335.597 113.849 334.805 114.065C334.013 114.299 333.239 114.416 332.483 114.416Z" fill="#D6DBDF"/>
<path d="M300.267 114.146C299.637 114.146 299.178 114.047 298.89 113.849C298.62 113.651 298.44 113.399 298.35 113.093C298.26 112.769 298.215 112.427 298.215 112.067V97.2981C298.215 96.9561 298.251 96.6321 298.323 96.3261C298.395 96.0021 298.575 95.7411 298.863 95.5431C299.151 95.3451 299.628 95.2551 300.294 95.2731H305.154C306.45 95.2731 307.656 95.5071 308.772 95.9751C309.888 96.4431 310.869 97.1001 311.715 97.9461C312.561 98.7921 313.218 99.7821 313.686 100.916C314.154 102.05 314.388 103.283 314.388 104.615C314.388 105.965 314.154 107.225 313.686 108.395C313.218 109.547 312.561 110.555 311.715 111.419C310.869 112.265 309.879 112.931 308.745 113.417C307.629 113.903 306.405 114.146 305.073 114.146H300.267ZM302.319 110.015H305.154C306.126 110.015 306.999 109.79 307.773 109.34C308.547 108.872 309.159 108.242 309.609 107.45C310.059 106.658 310.284 105.749 310.284 104.723C310.284 103.697 310.059 102.779 309.609 101.969C309.159 101.159 308.547 100.529 307.773 100.079C306.999 99.6111 306.117 99.3771 305.127 99.3771H302.319V110.015Z" fill="#D6DBDF"/>
<path d="M292.21 114.146C291.562 114.146 291.094 114.056 290.806 113.876C290.518 113.678 290.338 113.417 290.266 113.093C290.212 112.769 290.185 112.436 290.185 112.094V97.3251C290.185 96.9651 290.212 96.6321 290.266 96.3261C290.338 96.0201 290.518 95.7681 290.806 95.5701C291.094 95.3721 291.571 95.2731 292.237 95.2731C292.921 95.2731 293.398 95.3721 293.668 95.5701C293.956 95.7681 294.127 96.0201 294.181 96.3261C294.253 96.6321 294.289 96.9741 294.289 97.3521V112.121C294.289 112.463 294.253 112.796 294.181 113.12C294.109 113.426 293.929 113.678 293.641 113.876C293.371 114.056 292.894 114.146 292.21 114.146Z" fill="#D6DBDF"/>
<path d="M277.995 114.389C276.681 114.389 275.52 114.137 274.512 113.633C273.522 113.111 272.676 112.427 271.974 111.581C271.29 110.717 270.777 109.754 270.435 108.692C270.093 107.612 269.922 106.514 269.922 105.398V97.3251C269.922 96.9651 269.949 96.6321 270.003 96.3261C270.075 96.0021 270.255 95.7411 270.543 95.5431C270.831 95.3451 271.308 95.2461 271.974 95.2461C272.658 95.2461 273.144 95.3451 273.432 95.5431C273.72 95.7411 273.891 96.0021 273.945 96.3261C274.017 96.6321 274.053 96.9741 274.053 97.3521V105.398C274.053 106.19 274.179 106.955 274.431 107.693C274.701 108.431 275.133 109.043 275.727 109.529C276.321 110.015 277.104 110.258 278.076 110.258C278.904 110.258 279.615 110.06 280.209 109.664C280.803 109.25 281.262 108.683 281.586 107.963C281.91 107.225 282.072 106.361 282.072 105.371V97.1631C282.072 96.8391 282.108 96.5331 282.18 96.2451C282.252 95.9571 282.432 95.7231 282.72 95.5431C283.008 95.3451 283.485 95.2461 284.151 95.2461C284.817 95.2461 285.285 95.3541 285.555 95.5701C285.843 95.7681 286.014 96.0201 286.068 96.3261C286.14 96.6321 286.176 96.9741 286.176 97.3521V105.452C286.176 106.586 285.996 107.684 285.636 108.746C285.294 109.808 284.772 110.762 284.07 111.608C283.386 112.454 282.531 113.129 281.505 113.633C280.497 114.137 279.327 114.389 277.995 114.389Z" fill="#D6DBDF"/>
<path d="M266.494 110.339C267.124 110.753 267.475 111.167 267.547 111.581C267.637 111.995 267.448 112.526 266.98 113.174C266.656 113.642 266.359 113.957 266.089 114.119C265.819 114.281 265.531 114.317 265.225 114.227C264.919 114.137 264.559 113.957 264.145 113.687L262.147 112.391C261.373 113.021 260.518 113.516 259.582 113.876C258.646 114.236 257.656 114.416 256.612 114.416C255.316 114.416 254.092 114.173 252.94 113.687C251.806 113.183 250.807 112.499 249.943 111.635C249.097 110.753 248.422 109.736 247.918 108.584C247.432 107.414 247.189 106.181 247.189 104.885C247.189 103.517 247.423 102.248 247.891 101.078C248.377 99.8901 249.034 98.8461 249.862 97.9461C250.708 97.0461 251.689 96.3441 252.805 95.8401C253.921 95.3361 255.118 95.0841 256.396 95.0841C257.692 95.0841 258.907 95.3361 260.041 95.8401C261.193 96.3261 262.192 97.0101 263.038 97.8921C263.902 98.7741 264.577 99.8001 265.063 100.97C265.549 102.14 265.792 103.409 265.792 104.777C265.792 105.551 265.693 106.307 265.495 107.045C265.315 107.783 265.054 108.485 264.712 109.151L266.494 110.339ZM256.477 110.312C257.197 110.312 257.872 110.168 258.502 109.88C259.132 109.592 259.681 109.205 260.149 108.719C260.635 108.215 261.004 107.621 261.256 106.937C261.526 106.253 261.661 105.524 261.661 104.75C261.661 103.994 261.526 103.283 261.256 102.617C260.986 101.933 260.608 101.339 260.122 100.835C259.654 100.313 259.105 99.9081 258.475 99.6201C257.863 99.3321 257.206 99.1881 256.504 99.1881C255.784 99.1881 255.109 99.3321 254.479 99.6201C253.849 99.9081 253.291 100.313 252.805 100.835C252.337 101.339 251.968 101.933 251.698 102.617C251.428 103.283 251.293 104.003 251.293 104.777C251.293 105.533 251.428 106.253 251.698 106.937C251.986 107.603 252.364 108.188 252.832 108.692C253.318 109.196 253.867 109.592 254.479 109.88C255.109 110.168 255.775 110.312 256.477 110.312Z" fill="#D6DBDF"/>
<path d="M241.778 114.146C241.13 114.146 240.662 114.056 240.374 113.876C240.086 113.678 239.906 113.417 239.834 113.093C239.78 112.769 239.753 112.436 239.753 112.094V97.3251C239.753 96.9651 239.78 96.6321 239.834 96.3261C239.906 96.0201 240.086 95.7681 240.374 95.5701C240.662 95.3721 241.139 95.2731 241.805 95.2731C242.489 95.2731 242.966 95.3721 243.236 95.5701C243.524 95.7681 243.695 96.0201 243.749 96.3261C243.821 96.6321 243.857 96.9741 243.857 97.3521V112.121C243.857 112.463 243.821 112.796 243.749 113.12C243.677 113.426 243.497 113.678 243.209 113.876C242.939 114.056 242.462 114.146 241.778 114.146Z" fill="#D6DBDF"/>
<path d="M225.188 114.146C224.54 114.146 224.072 114.056 223.784 113.876C223.496 113.678 223.316 113.417 223.244 113.093C223.172 112.769 223.136 112.436 223.136 112.094V97.3251C223.136 96.9651 223.163 96.6321 223.217 96.3261C223.289 96.0201 223.469 95.7681 223.757 95.5701C224.045 95.3721 224.522 95.2731 225.188 95.2731C225.872 95.2731 226.349 95.3721 226.619 95.5701C226.907 95.7681 227.078 96.0201 227.132 96.3261C227.204 96.6321 227.24 96.9651 227.24 97.3251V110.582H234.638C234.944 110.582 235.232 110.609 235.502 110.663C235.772 110.717 235.988 110.87 236.15 111.122C236.33 111.374 236.42 111.788 236.42 112.364C236.42 112.922 236.33 113.336 236.15 113.606C235.97 113.858 235.745 114.011 235.475 114.065C235.223 114.119 234.944 114.146 234.638 114.146H225.188Z" fill="#D6DBDF"/>
</svg>
