<svg width="200" height="225" viewBox="0 0 200 225" fill="none" xmlns="http://www.w3.org/2000/svg">
<path d="M199.453 35.0758C158.253 35.0758 126.69 24.1312 99.9961 0C73.3101 24.1312 41.7473 35.0758 0.546964 35.0758C0.546964 97.9182 -13.4358 187.94 99.9961 224.499C213.438 187.94 199.453 97.9189 199.453 35.0758Z" fill="#2E2E2F"/>
<path d="M92.6647 164.665C86.4021 164.665 80.6247 163.518 75.3324 161.225C70.1283 158.843 65.8503 155.491 62.4985 151.169L74.4062 136.88C79.4339 143.672 85.1673 147.068 91.6062 147.068C100.339 147.068 104.705 141.952 104.705 131.72V87.6615H72.157V70.4615H126.006V130.529C126.006 141.908 123.184 150.464 117.539 156.197C111.893 161.842 103.602 164.665 92.6647 164.665Z" fill="#FFDF75"/>
</svg>
