<svg width="100" height="100" viewBox="0 0 100 100" fill="none" xmlns="http://www.w3.org/2000/svg">
<rect width="100" height="100" fill="white"/>
<path d="M88.0222 20.3693C72.3185 20.3693 60.2883 16.1977 50.1139 7C39.9424 16.1977 27.9121 20.3693 12.2085 20.3693C12.2085 44.3219 6.87888 78.6339 50.1139 92.5687C93.3526 78.6341 88.0222 44.3221 88.0222 20.3693Z" fill="#2E2E2F"/>
<path d="M49.4979 67.9058C47.1109 67.9058 44.9088 67.4688 42.8917 66.5947C40.9081 65.6869 39.2775 64.4094 38 62.762L42.5387 57.3156C44.455 59.9043 46.6403 61.1987 49.0945 61.1987C52.4229 61.1987 54.087 59.2488 54.087 55.3489V38.5558H41.6814V32H62.2062V54.895C62.2062 59.232 61.1304 62.4931 58.9787 64.6783C56.827 66.83 53.6668 67.9058 49.4979 67.9058Z" fill="#FFDF75"/>
</svg>
