<svg width="108" height="120" viewBox="0 0 108 120" fill="none" xmlns="http://www.w3.org/2000/svg">
<path d="M67.0516 20.9806C67.0516 9.39331 76.1423 0 87.3564 0C98.5704 0 107.661 9.39332 107.661 20.9806V81.7807C107.661 93.368 98.5704 102.761 87.3564 102.761C81.9247 102.761 76.9911 100.558 73.3474 96.9681C68.3841 92.0786 62.7533 86.63 55.8957 86.63C49.1049 86.63 43.5097 91.905 38.7875 96.9476C34.7757 101.232 29.1527 103.895 22.9278 103.895C10.7407 103.895 0.861206 93.6867 0.861206 81.0941C0.861206 68.5015 10.7407 58.2931 22.9278 58.2931C31.0003 58.2931 38.0604 62.7721 41.9074 69.4562C44.9926 74.8165 49.7212 80.0272 55.757 80.0272C61.9948 80.0272 67.0516 74.8022 67.0516 68.3568V20.9806Z" fill="#FFCB25"/>
<path d="M56.0811 120C64.4082 120 71.1588 114.288 71.1588 107.242C71.1588 100.195 62.9881 92.8796 56.0811 92.8796C49.174 92.8796 41.0033 100.195 41.0033 107.242C41.0033 114.288 47.7539 120 56.0811 120Z" fill="#FFCB25"/>
</svg>
