<svg width="300" height="300" viewBox="0 0 300 300" fill="none" xmlns="http://www.w3.org/2000/svg">
<path d="M20 75.0162L149.941 0L279.884 75.0161L279.884 224.984L149.941 300L20 224.984L20 75.0162Z" fill="white"/>
<path fill-rule="evenodd" clip-rule="evenodd" d="M51 92.9147L51 207.085L149.942 264.205L248.884 207.085V92.9147L149.942 35.795L51 92.9147ZM149.941 0L20 75.0162L20 224.984L149.941 300L279.884 224.984L279.884 75.0161L149.941 0Z" fill="#FFD140"/>
<path d="M193.086 173.788C193.086 182.104 190.006 189.188 183.846 195.04C177.789 200.789 168.959 204.28 157.358 205.512V222.76H144.73V205.666C137.133 205.153 129.946 203.767 123.17 201.508C116.394 199.249 111.004 196.375 107 192.884L113.93 177.33C117.729 180.41 122.349 183.028 127.79 185.184C133.231 187.237 138.878 188.521 144.73 189.034V158.234C137.441 156.489 131.332 154.589 126.404 152.536C121.579 150.38 117.523 147.3 114.238 143.296C110.953 139.189 109.31 133.799 109.31 127.126C109.31 118.81 112.339 111.726 118.396 105.874C124.453 100.022 133.231 96.5313 144.73 95.402V78H157.358V95.094C163.107 95.402 168.703 96.3773 174.144 98.02C179.688 99.6627 184.513 101.819 188.62 104.488L182.306 120.042C174.503 115.525 166.187 112.753 157.358 111.726V142.834C164.75 144.579 170.859 146.479 175.684 148.532C180.612 150.585 184.719 153.665 188.004 157.772C191.392 161.776 193.086 167.115 193.086 173.788ZM129.176 126.202C129.176 129.59 130.511 132.311 133.18 134.364C135.849 136.417 139.699 138.163 144.73 139.6V112.188C139.494 113.009 135.593 114.652 133.026 117.116C130.459 119.58 129.176 122.609 129.176 126.202ZM157.358 188.726C162.799 187.905 166.803 186.313 169.37 183.952C172.039 181.591 173.374 178.665 173.374 175.174C173.374 171.683 171.988 168.911 169.216 166.858C166.444 164.702 162.491 162.905 157.358 161.468V188.726Z" fill="#2E2E2F"/>
</svg>
