<svg width="300" height="300" viewBox="0 0 300 300" fill="none" xmlns="http://www.w3.org/2000/svg">
<path d="M20 75.0162L149.941 0L279.884 75.0161L279.884 224.984L149.941 300L20 224.984L20 75.0162Z" fill="white"/>
<path fill-rule="evenodd" clip-rule="evenodd" d="M51 92.9147L51 207.085L149.942 264.205L248.884 207.085V92.9147L149.942 35.795L51 92.9147ZM149.941 0L20 75.0162L20 224.984L149.941 300L279.884 224.984L279.884 75.0161L149.941 0Z" fill="#FFD140"/>
<path d="M189.78 125.236C189.066 125.952 188.084 126.369 187.043 126.369L92.6364 126.369C90.9113 126.369 90.0487 124.282 91.2682 123.059L109.918 104.364C110.631 103.648 111.613 103.23 112.654 103.23L207.061 103.23C208.786 103.23 209.648 105.318 208.429 106.54L189.78 125.236Z" fill="#2E2E2F"/>
<path d="M189.78 195.042C189.036 195.757 188.054 196.175 187.043 196.175L92.6365 196.175C90.9113 196.175 90.0488 194.088 91.2683 192.865L109.918 174.169C110.631 173.453 111.613 173.036 112.654 173.036L207.061 173.036C208.786 173.036 209.648 175.123 208.429 176.346L189.78 195.042Z" fill="#2E2E2F"/>
<path d="M109.918 160.363C110.631 161.079 111.613 161.496 112.654 161.496L207.061 161.496C208.786 161.496 209.648 159.409 208.429 158.187L189.78 139.491C189.066 138.775 188.084 138.358 187.043 138.358L92.6364 138.358C90.9113 138.358 90.0487 140.445 91.2682 141.667L109.918 160.363Z" fill="#2E2E2F"/>
</svg>
