<svg width="154" height="173" viewBox="0 0 154 173" fill="none" xmlns="http://www.w3.org/2000/svg">
<path d="M153.579 27.1877C121.854 27.1877 97.5511 18.7629 76.997 0.1875C56.4488 18.7629 32.1454 27.1877 0.421162 27.1877C0.421162 75.5619 -10.3456 144.858 76.997 173C164.347 144.858 153.579 75.5624 153.579 27.1877Z" fill="#FFDF75"/>
<path d="M71.4 127.063C66.5681 127.063 62.1104 126.178 58.0271 124.41C54.0118 122.574 50.7111 119.99 48.125 116.658L57.3125 105.642C61.1917 110.878 65.6153 113.496 70.5833 113.496C77.3208 113.496 80.6896 109.552 80.6896 101.664V67.6977H55.5771V54.4375H97.125V100.746C97.125 109.518 94.9472 116.114 90.5917 120.534C86.2361 124.886 79.8389 127.063 71.4 127.063Z" fill="black"/>
</svg>
