<svg width="300" height="300" viewBox="0 0 300 300" fill="none" xmlns="http://www.w3.org/2000/svg">
<circle cx="150" cy="150" r="150" fill="#6764FB"/>
<path d="M169.75 220C160.875 220 152.687 218.375 145.187 215.125C137.813 211.75 131.75 207 127 200.875L143.875 180.625C151 190.25 159.125 195.063 168.25 195.063C180.625 195.063 186.812 187.813 186.812 173.313V110.875H140.688V86.5001H217V171.625C217 187.75 213 199.875 205 208C197 216 185.25 220 169.75 220Z" fill="#FFD140"/>
<path d="M92.3015 171.937H115.233V180.649H81.5017V128.013H92.3015V171.937Z" fill="white"/>
<path d="M132.261 162.104V180.649H121.461V128.013H141.908C145.844 128.013 149.3 128.736 152.276 130.182C155.276 131.628 157.58 133.689 159.188 136.364C160.796 139.015 161.6 142.04 161.6 145.438C161.6 150.596 159.836 154.669 156.308 157.657C152.804 160.621 147.944 162.104 141.728 162.104H132.261ZM132.261 153.319H141.908C144.764 153.319 146.936 152.644 148.424 151.294C149.936 149.945 150.692 148.017 150.692 145.51C150.692 142.931 149.936 140.847 148.424 139.256C146.912 137.665 144.824 136.846 142.16 136.798H132.261V153.319Z" fill="white"/>
</svg>
